<svg xmlns="http://www.w3.org/2000/svg" aria-hidden="true" style="width:0;height:0;position:absolute;overflow:hidden"><defs><symbol id="icon-logo" viewBox="0 0 32 32"><path fill="#f59e0b" style="fill:var(--color1,#f59e0b)" d="M0 3.556A3.556 3.556 0 0 1 3.556 0h21.333a3.556 3.556 0 0 1 3.556 3.556v3.556c0 11.782-9.551 21.333-21.333 21.333H3.556A3.556 3.556 0 0 1 0 24.889V3.556z"/><path fill="#4be4c9" style="fill:var(--color2,#4be4c9)" d="M3.556 7.111a3.556 3.556 0 0 1 3.556-3.556h21.333a3.556 3.556 0 0 1 3.556 3.556v3.556C32.001 22.449 22.45 32 10.668 32H7.112a3.556 3.556 0 0 1-3.556-3.556V7.111z"/></symbol><symbol id="icon-arrow-left" viewBox="0 0 32 32"><path d="M20.009 25.331h.002c.506 0 .945-.285 1.166-.703l.003-.007a1.332 1.332 0 0 0-.156-1.474l.002.002-5.922-7.131 5.711-7.144c.185-.227.297-.52.297-.839 0-.418-.192-.79-.493-1.034l-.002-.002a1.319 1.319 0 0 0-1.531-.156l.006-.003a1.34 1.34 0 0 0-.403.355l-.002.003-6.386 7.983a1.332 1.332 0 0 0 .002 1.692l-.002-.002 6.61 7.983c.244.295.61.481 1.02.481l.081-.002h-.004z"/></symbol><symbol id="icon-arrow-right" viewBox="0 0 32 32"><path d="M13.324 6.669h-.003c-.505 0-.944.285-1.165.702l-.003.007a1.32 1.32 0 0 0-.152.62c0 .325.116.623.309.854l-.002-.002 5.923 7.131-5.712 7.144a1.333 1.333 0 0 0 .198 1.874l.002.002a1.316 1.316 0 0 0 1.529.157l-.006.003c.162-.093.297-.214.404-.357l.002-.003 6.387-7.981c.188-.228.301-.523.301-.845s-.114-.617-.303-.847l.002.002-6.613-7.984a1.324 1.324 0 0 0-1.022-.482l-.079.002h.004z"/></symbol><symbol id="icon-arrow-down" viewBox="0 0 32 32"><path d="M25.998 12.658v-.005c0-.506-.285-.945-.704-1.165l-.007-.003a1.332 1.332 0 0 0-1.475.157l.002-.002-7.129 5.925-7.147-5.712a1.332 1.332 0 0 0-1.872.196l-.002.002a1.317 1.317 0 0 0 .196 1.928l.003.002 7.982 6.386a1.334 1.334 0 0 0 1.691-.002l-.002.002 7.982-6.612c.295-.244.482-.611.482-1.021l-.002-.079v.004z"/></symbol><symbol id="icon-location" viewBox="0 0 32 32"><path d="M16 1.333c3.183 0 6.235 1.324 8.485 3.683C26.736 7.373 28 10.571 28 13.905c0 6.007-3.869 11.536-11.464 16.599a.963.963 0 0 1-1.075-.002l.003.002C7.869 25.44 4 19.912 4 13.904c0-3.333 1.264-6.531 3.515-8.888C9.766 2.657 12.818 1.333 16 1.333zm0 8.382c-1.061 0-2.079.44-2.828 1.227A4.275 4.275 0 0 0 12 13.89v.018-.001c0 1.111.421 2.177 1.172 2.963.749.787 1.767 1.227 2.828 1.227s2.079-.44 2.828-1.227A4.275 4.275 0 0 0 20 13.922v-.017.001-.016a4.278 4.278 0 0 0-1.174-2.95l.002.002a3.903 3.903 0 0 0-2.827-1.227H16z"/></symbol><symbol id="icon-house" viewBox="0 0 32 32"><path d="M28 14.443V26a2.012 2.012 0 0 1-1.046 1.763l-.01.005a1.93 1.93 0 0 1-.941.232h-6.007a1 1 0 0 1-1-1v-6a1 1 0 0 0-1-1h-4a1 1 0 0 0-1 1v6a1 1 0 0 1-1 1H5.994a1.982 1.982 0 0 1-1.491-.674l-.002-.002A2.048 2.048 0 0 1 4 25.977v-.024.001-11.512a2 2 0 0 1 .653-1.479l.002-.001 10-9.092a1.99 1.99 0 0 1 2.692.001l-.001-.001 10 9.092c.402.368.654.894.655 1.48z"/></symbol><symbol id="icon-villa" viewBox="0 0 32 32"><path d="M9.333 28h-4C4.6 28 4 27.4 4 26.667v-15.08c0-.56.333-1.053.853-1.253l14.667-5.64a1.333 1.333 0 0 1 1.813 1.244V13.335H10.666c-.733 0-1.333.6-1.333 1.333v13.333zm13.334-12h-9.333c-.733 0-1.333.6-1.333 1.333v9.333c0 .733.6 1.333 1.333 1.333h5.333v-5.333c0-.733.6-1.333 1.333-1.333s1.333.6 1.333 1.333v5.333h5.333c.733 0 1.333-.6 1.333-1.333V15.999c0-1.467-1.2-2.667-2.667-2.667s-2.667 1.2-2.667 2.667z"/></symbol><symbol id="icon-apartment" viewBox="0 0 32 32"><path d="M24.889 14.222V3.555c0-1.956-1.6-3.556-3.556-3.556H10.666A3.566 3.566 0 0 0 7.11 3.555v3.556H3.554a3.566 3.566 0 0 0-3.556 3.556v17.778c0 1.956 1.6 3.556 3.556 3.556h10.667V24.89h3.556v7.111h10.667c1.956 0 3.556-1.6 3.556-3.556V17.778c0-1.956-1.6-3.556-3.556-3.556h-3.556zM7.111 28.444H3.555v-3.556h3.556v3.556zm0-7.111H3.555v-3.556h3.556v3.556zm0-7.111H3.555v-3.556h3.556v3.556zm7.111 7.111h-3.556v-3.556h3.556v3.556zm0-7.111h-3.556v-3.556h3.556v3.556zm0-7.111h-3.556V3.555h3.556v3.556zm7.111 14.222h-3.556v-3.556h3.556v3.556zm0-7.111h-3.556v-3.556h3.556v3.556zm0-7.111h-3.556V3.555h3.556v3.556zm7.111 21.333h-3.556v-3.556h3.556v3.556zm0-7.111h-3.556v-3.556h3.556v3.556z"/></symbol><symbol id="icon-fire" viewBox="0 0 32 32"><path d="M26.066 14.662a10.938 10.938 0 0 0-2.582-3.593l-.008-.007-.91-.834a.251.251 0 0 0-.405.103l-.001.002-.406 1.164c-.254.732-.72 1.48-1.38 2.214a.198.198 0 0 1-.127.06h-.001l-.016.001a.172.172 0 0 1-.118-.047.184.184 0 0 1-.062-.138v-.012.001c.116-1.88-.446-4.002-1.68-6.312-1.016-1.92-2.432-3.416-4.2-4.46l-1.292-.76a.25.25 0 0 0-.374.217v.014-.001l.068 1.5c.046 1.024-.072 1.932-.354 2.684a8.845 8.845 0 0 1-1.468 2.548 9.374 9.374 0 0 1-1.463 1.425l-.021.015a11.102 11.102 0 0 0-3.105 3.734l-.029.062a10.71 10.71 0 0 0-1.13 4.825c0 1.534.318 2.994.891 4.317l-.027-.07c1.148 2.628 3.214 4.676 5.784 5.773l.072.027c1.256.541 2.718.856 4.254.856h.026-.001c1.484 0 2.92-.286 4.28-.852a10.934 10.934 0 0 0 3.494-2.334 10.786 10.786 0 0 0 3.226-7.707v-.01c0-1.526-.312-3.006-.934-4.404z"/></symbol><symbol id="icon-wallet" viewBox="0 0 32 32"><path d="M25.6 9.6h-20v-.8l17.6-1.408V8.8h2.4V6.4c0-1.76-1.426-2.996-3.166-2.748L6.368 5.948C4.626 6.196 3.2 7.84 3.2 9.6v16a3.2 3.2 0 0 0 3.2 3.2h19.2a3.2 3.2 0 0 0 3.2-3.2V12.8a3.2 3.2 0 0 0-3.2-3.2zm-2.4 11.21a2.406 2.406 0 0 1-2.4-2.402 2.406 2.406 0 0 1 2.4-2.4 2.4 2.4 0 0 1 0 4.8z"/></symbol><symbol id="icon-bed" viewBox="0 0 32 32"><path d="M23.8 14.77c2.271 0 4.2 1.892 4.2 4.307v3.692h-1.8V24H25v-1.23H7V24H5.8v-1.23H4v-3.693c0-2.33 1.863-4.308 4.2-4.308h15.6zM22.6 8c1.613 0 3 1.33 3 3.077v2.94a3.603 3.603 0 0 0-1.8-.478l-1.2-.001c0-1.054-.841-1.846-1.8-1.846h-3.6a1.77 1.77 0 0 0-1.2.47 1.76 1.76 0 0 0-1.2-.47h-3.6c-.994 0-1.8.826-1.8 1.846H8.2c-.644 0-1.254.172-1.8.479v-2.94C6.4 9.422 7.694 8 9.4 8h13.2zm-7.8 4.923c.326 0 .6.307.6.616l-4.8-.001c0-.377.292-.615.6-.615h3.6zm6 .004c.34-.004.6.296.6.61h-4.8c0-.381.292-.614.6-.614l3.6.004z"/></symbol><symbol id="icon-bath" viewBox="0 0 33 32"><path d="M27.04 15.955H5.96c-.83 0-1.505.676-1.505 1.506s.676 1.506 1.506 1.506h21.078c.83 0 1.506-.676 1.506-1.506s-.676-1.506-1.506-1.506z"/><path d="M27.178 17.982a.5.5 0 0 0-.619.341l-.001.004-.04.138H6.483l-.04-.138a.502.502 0 1 0-.964.279l-.001-.004 1.383 4.842a3.535 3.535 0 0 0 3.377 2.549H22.76a3.53 3.53 0 0 0 3.372-2.524l.006-.025 1.383-4.842a.501.501 0 0 0-.339-.619l-.004-.001zM10.24 23.985a1.51 1.51 0 0 1-1.445-1.081l-.003-.011-.651-2.282a.502.502 0 1 1 .964-.279l.001.003.65 2.282c.063.214.26.364.484.364a.503.503 0 0 1 .001 1.003h-.001z"/><path d="M11.203 25.041a.504.504 0 0 0-.672.222l-.001.003-1.004 2.007a.503.503 0 0 0 .898.453l.001-.003 1.003-2.008a.5.5 0 0 0-.222-.672l-.003-.001zm12.271 2.233-1.004-2.007a.502.502 0 1 0-.897.451l1.002 2.005a.504.504 0 1 0 .898-.451l.001.003zM24.615 4c-.512 0-.994.2-1.356.562l-1.593 1.593a.502.502 0 0 0 .71.71l1.593-1.592a.904.904 0 0 1 .644-.268h.007c.504 0 .913.41.913.913v10.54a.503.503 0 0 0 1.006-.001V5.917A1.92 1.92 0 0 0 24.619 4h-.003z"/><path d="m22.878 6.657-1.004-1.004a.495.495 0 0 0-.44-.139h.003l-2.509.411a.505.505 0 0 0-.279.844l3.011 3.102a.497.497 0 0 0 .506.13l-.004.001a.5.5 0 0 0 .349-.379l.001-.003.502-2.51a.502.502 0 0 0-.136-.452zm-6.526 3.423a.5.5 0 0 0-.71 0l-1.003 1.004a.502.502 0 0 0 .71.71l1.003-1.004a.5.5 0 0 0 0-.71zm2.008 2.008a.5.5 0 0 0-.71 0l-1.003 1.004a.502.502 0 0 0 .71.71l1.003-1.004a.5.5 0 0 0 0-.71zm1.004-3.011a.5.5 0 0 0-.71 0L17.65 10.08a.502.502 0 0 0 .71.71l1.004-1.005a.5.5 0 0 0 0-.71z"/></symbol><symbol id="icon-car-garage" viewBox="0 0 32 32"><path d="m27.384 10.629-10.027-6.25A2.555 2.555 0 0 0 16.01 4c-.506 0-.977.145-1.376.397l.011-.006-10.037 6.244c-.623.391-.795 1.191-.385 1.786s1.248.76 1.872.367l9.916-6.169 9.903 6.174c.228.14.482.207.733.207.444 0 .877-.207 1.136-.588.406-.598.226-1.395-.4-1.782z"/><path d="M24.21 18.753a.929.929 0 0 0-.901-.783h-.513l-.194-2.074C22.394 13.678 20.599 12 18.425 12h-4.849c-2.174 0-3.97 1.679-4.177 3.896l-.194 2.074h-.512a.93.93 0 0 0-.903.778l-.001.005-.761 4.424a1.912 1.912 0 0 0 .409 1.541l-.003-.003c.335.41.83.654 1.348.673v.734c0 1.04.813 1.878 1.828 1.878h.577c1.015 0 1.84-.838 1.84-1.878V25.4h5.952v.721c0 1.04.819 1.88 1.833 1.88h.578c1.014 0 1.834-.84 1.834-1.88v-.732a1.817 1.817 0 0 0 1.341-.667l.003-.003a1.911 1.911 0 0 0 .404-1.55l.002.012-.762-4.427zm-13.82 4.94c-.855 0-1.55-.71-1.55-1.59 0-.878.695-1.59 1.55-1.59.857 0 1.552.711 1.552 1.59s-.695 1.59-1.551 1.59zm.387-5.723.18-1.913c.13-1.391 1.256-2.439 2.62-2.439h.279v.619a.92.92 0 0 0 .912.92h2.464c.509 0 .92-.416.92-.937v-.601h.273c1.363 0 2.49 1.047 2.619 2.439l.18 1.913H10.777zm10.831 5.723c-.856 0-1.55-.71-1.55-1.59 0-.878.694-1.59 1.55-1.59s1.551.711 1.551 1.59c0 .88-.694 1.59-1.55 1.59z"/></symbol><symbol id="icon-stairs" viewBox="0 0 33 32"><path d="M27.288 9h-4.356c-.669 0-1.211.537-1.211 1.2v3.114h-3.145c-.67 0-1.212.536-1.212 1.199v3.114H14.22c-.67 0-1.211.537-1.211 1.2v3.264H9.712c-.322 0-.63.126-.857.35a1.192 1.192 0 0 0-.355.85V25.8c0 .663.543 1.2 1.212 1.2h17.576c.67 0 1.212-.537 1.212-1.2V10.2c0-.663-.542-1.2-1.212-1.2z"/><path d="M21.264 5.245a.844.844 0 0 0-1.179-.015C14.742 10.305 9.659 15.262 4.743 20.055a.8.8 0 0 0-.244.575v5.558c0 .448.373.812.833.812s.833-.364.833-.812v-5.222c4.836-4.716 9.836-9.588 15.082-14.572a.798.798 0 0 0 .016-1.149z"/></symbol><symbol id="icon-phone" viewBox="0 0 32 32"><path d="M11.179 3.307a3.197 3.197 0 0 1 3.715 1.496l.008.016.12.24 1.057 2.352c.223.482.352 1.046.352 1.64a3.985 3.985 0 0 1-1.061 2.712l.002-.003-.212.211-1.671 1.557c-.3.285-.075 1.387 1.015 3.272.977 1.696 1.776 2.488 2.167 2.531h.069l.084-.016 3.28-1.003a2.394 2.394 0 0 1 2.5.704l.002.003.147.183 2.171 3.008a3.18 3.18 0 0 1 .606 1.873c0 .816-.305 1.561-.808 2.126l.003-.003-.195.2-.868.824a5.578 5.578 0 0 1-3.851 1.534 5.577 5.577 0 0 1-2.131-.42l.037.014c-3.096-1.248-5.909-4.1-8.464-8.525-2.56-4.437-3.624-8.304-3.149-11.616a5.617 5.617 0 0 1 3.581-4.45l.039-.013.308-.103 1.147-.345z"/></symbol><symbol id="icon-play" viewBox="0 0 22 32"><path d="M21.818 16.727.727.727H0v30.545l21.818-14.545z"/></symbol><symbol id="icon-star" viewBox="0 0 32 32"><path d="M29.263 12.239a1.338 1.338 0 0 0-1.153-.901h-.005l-7.601-.603-3.289-7.281a1.332 1.332 0 0 0-2.426-.01l-.003.008-3.288 7.283-7.601.603a1.335 1.335 0 0 0-.826 2.284l5.615 5.475L6.7 27.699a1.334 1.334 0 0 0 2.045 1.407l-.005.003 7.261-4.84 7.259 4.84a1.335 1.335 0 0 0 2.021-1.483l.002.009-2.439-8.534 6.049-5.443c.395-.357.541-.914.37-1.419z"/></symbol><symbol id="icon-clock" viewBox="0 0 32 32"><path d="M15.987 2.667C8.627 2.667 2.667 8.64 2.667 16s5.96 13.333 13.32 13.333c7.373 0 13.347-5.973 13.347-13.333S23.361 2.667 15.987 2.667zm5.346 18.666c-.24.242-.573.391-.94.391s-.7-.149-.94-.391l-4.387-4.387a1.33 1.33 0 0 1-.4-.946v-5.334c0-.733.6-1.333 1.333-1.333s1.333.6 1.333 1.333v4.787l4 4c.52.52.52 1.36 0 1.88z"/></symbol><symbol id="icon-letter" viewBox="0 0 32 32"><path d="M25.333 5.333H6.666a4 4 0 0 0-4 4v13.333a4 4 0 0 0 4 4h18.667a4 4 0 0 0 4-4V9.333a4 4 0 0 0-4-4zm0 2.667-8.667 5.96c-.191.112-.421.179-.667.179s-.475-.066-.673-.182l.006.003L6.665 8h18.667z"/></symbol><symbol id="icon-facebook" viewBox="0 0 32 32"><path d="M12.319 26v-9.385H9v-3.378h3.319V10.35c0-2.268 1.96-4.351 6.477-4.351 1.829 0 3.181.131 3.181.131l-.107 3.155s-1.379-.01-2.884-.01c-1.629 0-1.89.562-1.89 1.493v2.467H22l-.213 3.38h-4.69V26h-4.778z"/></symbol><symbol id="icon-twitter" viewBox="0 0 32 32"><path d="M28 8.376a9.389 9.389 0 0 1-2.786.775l-.046.005a5.034 5.034 0 0 0 2.153-2.745l.01-.035c-.964.588-2.02 1-3.12 1.219a4.926 4.926 0 0 0-1.605-1.168l-.031-.013A4.719 4.719 0 0 0 20.625 6h-.009C17.891 6 15.7 8.266 15.7 11.047c0 .39.046.781.12 1.157-4.08-.219-7.72-2.219-10.14-5.28a5.054 5.054 0 0 0-.67 2.529v.018-.001c0 1.752.869 3.296 2.193 4.205a4.86 4.86 0 0 1-2.247-.654l.023.012v.062c0 2.452 1.69 4.485 3.943 4.952-.423.113-.858.17-1.295.172a6.47 6.47 0 0 1-.93-.077c.624 2 2.438 3.453 4.598 3.5a9.645 9.645 0 0 1-6.099 2.157h-.007c-.412 0-.793-.015-1.188-.062A13.551 13.551 0 0 0 11.535 26h.02-.001c9.045 0 13.994-7.686 13.994-14.358 0-.219 0-.438-.014-.657a10.867 10.867 0 0 0 2.442-2.572L28 8.375z"/></symbol><symbol id="icon-instagram" viewBox="0 0 32 32"><path d="M15.997 12.665A3.342 3.342 0 0 0 12.663 16a3.342 3.342 0 0 0 3.334 3.335A3.343 3.343 0 0 0 19.332 16a3.343 3.343 0 0 0-3.335-3.335zM26 16c0-1.38.012-2.75-.065-4.128-.078-1.6-.443-3.022-1.614-4.193-1.173-1.173-2.591-1.536-4.192-1.613C18.747 5.988 17.378 6 16 6c-1.381 0-2.75-.013-4.128.065-1.601.077-3.022.443-4.193 1.613-1.173 1.174-1.536 2.592-1.613 4.193C5.988 13.253 6 14.622 6 16s-.013 2.75.065 4.128c.077 1.6.443 3.022 1.613 4.193 1.174 1.173 2.592 1.536 4.193 1.613 1.381.078 2.75.065 4.128.065 1.38 0 2.75.013 4.128-.065 1.6-.077 3.021-.443 4.192-1.613 1.174-1.174 1.536-2.592 1.614-4.193.08-1.379.065-2.747.065-4.128zm-10.002 5.131h-.007a5.124 5.124 0 0 1-5.124-5.124v-.014a5.124 5.124 0 0 1 5.124-5.124h.006A5.124 5.124 0 0 1 21.128 16v.007a5.124 5.124 0 0 1-5.124 5.124h-.006zm5.341-9.274h-.001a1.197 1.197 0 0 1-1.197-1.197v-.001c0-.663.535-1.198 1.198-1.198h.004a1.197 1.197 0 0 1 .844 2.046c-.217.216-.516.35-.846.35h-.002z"/></symbol></defs></svg>