<svg xmlns="http://www.w3.org/2000/svg" aria-hidden="true" style="position:absolute;width:0;height:0;overflow:hidden">
  <defs>
    <symbol id="icon-logo" viewBox="0 0 32 32">
      <path fill="#f59e0b" style="fill: var(--color1, #f59e0b)" d="M0 3.556c0-1.964 1.592-3.556 3.556-3.556v0h21.333c1.964 0 3.556 1.592 3.556 3.556v0 3.556c0 11.782-9.551 21.333-21.333 21.333h-3.556c-1.964 0-3.556-1.592-3.556-3.556v0-21.333z"></path>
      <path fill="#4be4c9" style="fill: var(--color2, #4be4c9)" d="M3.556 7.111c0-1.964 1.592-3.556 3.556-3.556v0h21.333c1.964 0 3.556 1.592 3.556 3.556v0 3.556c0 11.782-9.551 21.333-21.333 21.333h-3.556c-1.964 0-3.556-1.592-3.556-3.556v0-21.333z"></path>
    </symbol>
    <symbol id="icon-arrow-left" viewBox="0 0 32 32">
      <path d="M20.009 25.331c0.001 0 0.002 0 0.002 0 0.506 0 0.945-0.285 1.166-0.703l0.003-0.007c0.096-0.18 0.152-0.393 0.152-0.62 0-0.325-0.116-0.623-0.308-0.854l0.002 0.002-5.922-7.131 5.711-7.144c0.185-0.227 0.297-0.52 0.297-0.839 0-0.418-0.192-0.79-0.493-1.034l-0.002-0.002c-0.232-0.206-0.538-0.331-0.874-0.331-0.239 0-0.463 0.064-0.657 0.175l0.006-0.003c-0.161 0.093-0.296 0.213-0.403 0.355l-0.002 0.003-6.386 7.983c-0.188 0.228-0.301 0.523-0.301 0.845s0.114 0.616 0.303 0.847l-0.002-0.002 6.61 7.983c0.244 0.295 0.61 0.481 1.020 0.481 0.027 0 0.054-0.001 0.081-0.002l-0.004 0z"></path>
    </symbol>
    <symbol id="icon-arrow-right" viewBox="0 0 32 32">
      <path d="M13.324 6.669c-0.001 0-0.002 0-0.003 0-0.505 0-0.944 0.285-1.165 0.702l-0.003 0.007c-0.096 0.18-0.152 0.393-0.152 0.62 0 0.325 0.116 0.623 0.309 0.854l-0.002-0.002 5.923 7.131-5.712 7.144c-0.185 0.227-0.296 0.519-0.296 0.838 0 0.418 0.193 0.791 0.494 1.036l0.002 0.002c0.232 0.205 0.538 0.331 0.874 0.331 0.239 0 0.462-0.063 0.655-0.174l-0.006 0.003c0.162-0.093 0.297-0.214 0.404-0.357l0.002-0.003 6.387-7.981c0.188-0.228 0.301-0.523 0.301-0.845s-0.114-0.617-0.303-0.847l0.002 0.002-6.613-7.984c-0.245-0.295-0.611-0.482-1.022-0.482-0.027 0-0.053 0.001-0.079 0.002l0.004-0z"></path>
    </symbol>
    <symbol id="icon-arrow-down" viewBox="0 0 32 32">
      <path d="M25.998 12.658c0-0.001 0-0.003 0-0.005 0-0.506-0.285-0.945-0.704-1.165l-0.007-0.003c-0.18-0.096-0.393-0.152-0.62-0.152-0.325 0-0.623 0.116-0.855 0.309l0.002-0.002-7.129 5.925-7.147-5.712c-0.227-0.184-0.519-0.296-0.837-0.296-0.418 0-0.79 0.192-1.035 0.492l-0.002 0.002c-0.205 0.232-0.33 0.538-0.33 0.873 0 0.431 0.206 0.814 0.526 1.055l0.003 0.002 7.982 6.386c0.228 0.187 0.523 0.301 0.844 0.301s0.616-0.114 0.847-0.303l-0.002 0.002 7.982-6.612c0.295-0.244 0.482-0.611 0.482-1.021 0-0.027-0.001-0.053-0.002-0.079l0 0.004z"></path>
    </symbol>
    <symbol id="icon-location" viewBox="0 0 32 32">
      <path d="M16 1.333c3.183 0 6.235 1.324 8.485 3.683 2.251 2.357 3.515 5.555 3.515 8.889 0 6.007-3.869 11.536-11.464 16.599-0.151 0.101-0.336 0.162-0.536 0.162s-0.385-0.061-0.539-0.164l0.003 0.002c-7.595-5.064-11.464-10.592-11.464-16.6 0-3.333 1.264-6.531 3.515-8.888 2.251-2.359 5.303-3.683 8.485-3.683zM16 9.715c-1.061 0-2.079 0.44-2.828 1.227-0.726 0.767-1.172 1.805-1.172 2.948 0 0.006 0 0.012 0 0.018v-0.001c0 1.111 0.421 2.177 1.172 2.963 0.749 0.787 1.767 1.227 2.828 1.227s2.079-0.44 2.828-1.227c0.726-0.767 1.172-1.805 1.172-2.948 0-0.006 0-0.011-0-0.017v0.001c0-0.005 0-0.010 0-0.016 0-1.142-0.446-2.181-1.174-2.95l0.002 0.002c-0.711-0.752-1.714-1.222-2.827-1.227h-0.001z"></path>
    </symbol>
    <symbol id="icon-house" viewBox="0 0 32 32">
      <path d="M28 14.443v11.557c-0.001 0.76-0.423 1.421-1.046 1.763l-0.010 0.005c-0.288 0.156-0.613 0.236-0.941 0.232h-6.007c-0.552 0-1-0.448-1-1v0-6c0-0.552-0.448-1-1-1v0h-4c-0.552 0-1 0.448-1 1v0 6c0 0.552-0.448 1-1 1v0h-5.996c-0.002 0-0.004 0-0.006 0-0.594 0-1.127-0.261-1.491-0.674l-0.002-0.002c-0.312-0.359-0.501-0.831-0.501-1.347 0-0.008 0-0.016 0-0.024v0.001-11.512c0.001-0.586 0.252-1.113 0.653-1.479l0.002-0.001 10-9.092c0.353-0.324 0.826-0.523 1.345-0.523s0.992 0.199 1.347 0.524l-0.001-0.001 10 9.092c0.402 0.368 0.654 0.894 0.655 1.48v0z"></path>
    </symbol>
    <symbol id="icon-villa" viewBox="0 0 32 32">
      <path d="M9.333 28h-4c-0.733 0-1.333-0.6-1.333-1.333v-15.080c0-0.56 0.333-1.053 0.853-1.253l14.667-5.64c0.142-0.057 0.307-0.089 0.48-0.089 0.736 0 1.333 0.597 1.333 1.333 0 0.003 0 0.007-0 0.010v-0 7.387h-10.667c-0.733 0-1.333 0.6-1.333 1.333v13.333zM22.667 16h-9.333c-0.733 0-1.333 0.6-1.333 1.333v9.333c0 0.733 0.6 1.333 1.333 1.333h5.333v-5.333c0-0.733 0.6-1.333 1.333-1.333s1.333 0.6 1.333 1.333v5.333h5.333c0.733 0 1.333-0.6 1.333-1.333v-10.667c0-1.467-1.2-2.667-2.667-2.667s-2.667 1.2-2.667 2.667z"></path>
    </symbol>
    <symbol id="icon-apartment" viewBox="0 0 32 32">
      <path d="M24.889 14.222v-10.667c0-1.956-1.6-3.556-3.556-3.556h-10.667c-1.956 0-3.556 1.6-3.556 3.556v3.556h-3.556c-1.956 0-3.556 1.6-3.556 3.556v17.778c0 1.956 1.6 3.556 3.556 3.556h10.667v-7.111h3.556v7.111h10.667c1.956 0 3.556-1.6 3.556-3.556v-10.667c0-1.956-1.6-3.556-3.556-3.556h-3.556zM7.111 28.444h-3.556v-3.556h3.556v3.556zM7.111 21.333h-3.556v-3.556h3.556v3.556zM7.111 14.222h-3.556v-3.556h3.556v3.556zM14.222 21.333h-3.556v-3.556h3.556v3.556zM14.222 14.222h-3.556v-3.556h3.556v3.556zM14.222 7.111h-3.556v-3.556h3.556v3.556zM21.333 21.333h-3.556v-3.556h3.556v3.556zM21.333 14.222h-3.556v-3.556h3.556v3.556zM21.333 7.111h-3.556v-3.556h3.556v3.556zM28.444 28.444h-3.556v-3.556h3.556v3.556zM28.444 21.333h-3.556v-3.556h3.556v3.556z"></path>
    </symbol>
    <symbol id="icon-fire" viewBox="0 0 32 32">
      <path d="M26.066 14.662c-0.636-1.411-1.51-2.608-2.582-3.593l-0.008-0.007-0.91-0.834c-0.044-0.040-0.104-0.064-0.168-0.064-0.109 0-0.202 0.069-0.237 0.167l-0.001 0.002-0.406 1.164c-0.254 0.732-0.72 1.48-1.38 2.214-0.033 0.034-0.077 0.056-0.127 0.060l-0.001 0c-0.005 0-0.010 0.001-0.016 0.001-0.046 0-0.087-0.018-0.118-0.047l0 0c-0.038-0.034-0.062-0.083-0.062-0.138 0-0.004 0-0.008 0-0.012l-0 0.001c0.116-1.88-0.446-4.002-1.68-6.312-1.016-1.92-2.432-3.416-4.2-4.46l-1.292-0.76c-0.036-0.021-0.079-0.033-0.124-0.033-0.138 0-0.25 0.112-0.25 0.25 0 0.005 0 0.009 0 0.014l-0-0.001 0.068 1.5c0.046 1.024-0.072 1.932-0.354 2.684-0.342 0.922-0.836 1.78-1.468 2.548-0.443 0.536-0.93 1.009-1.463 1.425l-0.021 0.015c-1.306 1.011-2.362 2.279-3.105 3.734l-0.029 0.062c-0.713 1.407-1.13 3.067-1.13 4.825 0 1.534 0.318 2.994 0.891 4.317l-0.027-0.070c1.148 2.628 3.214 4.676 5.784 5.773l0.072 0.027c1.256 0.541 2.718 0.856 4.254 0.856 0.009 0 0.017 0 0.026-0h-0.001c1.484 0 2.92-0.286 4.28-0.852 1.358-0.574 2.518-1.362 3.494-2.334l-0 0c1.992-1.963 3.226-4.691 3.226-7.707 0-0.003 0-0.007 0-0.010v0c0-1.526-0.312-3.006-0.934-4.404z"></path>
    </symbol>
    <symbol id="icon-wallet" viewBox="0 0 32 32">
      <path d="M25.6 9.6h-20v-0.8l17.6-1.408v1.408h2.4v-2.4c0-1.76-1.426-2.996-3.166-2.748l-16.066 2.296c-1.742 0.248-3.168 1.892-3.168 3.652v16c0 1.767 1.433 3.2 3.2 3.2h19.2c1.767 0 3.2-1.433 3.2-3.2v0-12.8c0-1.767-1.433-3.2-3.2-3.2v0zM23.2 20.81c-1.325-0.003-2.398-1.077-2.4-2.402v-0c0.003-1.324 1.076-2.397 2.4-2.4h0c1.325 0 2.4 1.075 2.4 2.4s-1.075 2.4-2.4 2.4v0z"></path>
    </symbol>
    <symbol id="icon-bed" viewBox="0 0 32 32">
      <path d="M23.8 14.77c2.271 0 4.2 1.892 4.2 4.307v3.692h-1.8v1.231h-1.2v-1.23h-18v1.23h-1.2v-1.23h-1.8v-3.693c0-2.33 1.863-4.308 4.2-4.308h15.6zM22.6 8c1.613 0 3 1.33 3 3.077v2.94c-0.517-0.3-1.138-0.477-1.8-0.478l-1.2-0.001c0-1.054-0.841-1.846-1.8-1.846h-3.6c-0.461 0-0.881 0.178-1.2 0.47-0.314-0.291-0.736-0.47-1.2-0.47h-3.6c-0.994 0-1.8 0.826-1.8 1.846h-1.2c-0.644 0-1.254 0.172-1.8 0.479v-2.94c0-1.655 1.294-3.077 3-3.077h13.2zM14.8 12.923c0.326 0 0.6 0.307 0.6 0.616l-4.8-0.001c0-0.377 0.292-0.615 0.6-0.615h3.6zM20.8 12.927c0.34-0.004 0.6 0.296 0.6 0.61h-4.8c0-0.381 0.292-0.614 0.6-0.614l3.6 0.004z"></path>
    </symbol>
    <symbol id="icon-bath" viewBox="0 0 33 32">
      <path d="M27.040 15.955h-21.080c-0.83 0-1.505 0.676-1.505 1.506s0.676 1.506 1.506 1.506h21.078c0.83 0 1.506-0.676 1.506-1.506s-0.676-1.506-1.506-1.506z"></path>
      <path d="M27.178 17.982c-0.042-0.013-0.090-0.020-0.139-0.020-0.228 0-0.42 0.153-0.48 0.361l-0.001 0.004-0.040 0.138h-20.035l-0.040-0.138c-0.062-0.212-0.254-0.364-0.482-0.364-0.277 0-0.502 0.225-0.502 0.502 0 0.049 0.007 0.096 0.020 0.141l-0.001-0.004 1.383 4.842c0.438 1.481 1.783 2.544 3.377 2.549h12.522c1.595-0.005 2.941-1.068 3.372-2.524l0.006-0.025 1.383-4.842c0.013-0.042 0.020-0.090 0.020-0.139 0-0.227-0.152-0.419-0.359-0.48l-0.004-0.001zM10.24 23.985c-0.684-0.001-1.261-0.457-1.445-1.081l-0.003-0.011-0.651-2.282c-0.015-0.046-0.024-0.099-0.024-0.154 0-0.277 0.225-0.502 0.502-0.502 0.234 0 0.431 0.16 0.486 0.377l0.001 0.003 0.65 2.282c0.063 0.214 0.26 0.364 0.484 0.364 0.267 0.012 0.48 0.232 0.48 0.502s-0.212 0.489-0.479 0.501l-0.001 0z"></path>
      <path d="M11.203 25.041c-0.065-0.033-0.142-0.052-0.223-0.052-0.196 0-0.365 0.111-0.449 0.274l-0.001 0.003-1.004 2.007c-0.029 0.061-0.045 0.133-0.045 0.209 0 0.278 0.225 0.503 0.503 0.503 0.189 0 0.354-0.105 0.44-0.259l0.001-0.003 1.003-2.008c0.033-0.065 0.053-0.143 0.053-0.224 0-0.196-0.112-0.365-0.275-0.448l-0.003-0.001zM23.474 27.274l-1.004-2.007c-0.082-0.174-0.255-0.291-0.456-0.291-0.277 0-0.502 0.225-0.502 0.502 0 0.087 0.022 0.169 0.061 0.24l1.002 2.005c0.084 0.166 0.254 0.278 0.45 0.278 0.277 0 0.502-0.225 0.502-0.502 0-0.082-0.020-0.159-0.054-0.227l0.001 0.003zM24.615 4c-0.512 0-0.994 0.2-1.356 0.562l-1.593 1.593c-0.091 0.091-0.147 0.216-0.147 0.355 0 0.277 0.225 0.502 0.502 0.502 0.139 0 0.264-0.056 0.355-0.147l1.593-1.592c0.165-0.166 0.392-0.268 0.644-0.268 0.002 0 0.005 0 0.007 0h-0c0.504 0 0.913 0.41 0.913 0.913v10.54c0.001 0.277 0.225 0.502 0.503 0.502s0.503-0.225 0.503-0.503c0-0 0-0.001 0-0.001v0-10.539c-0.002-1.059-0.861-1.917-1.92-1.917-0.001 0-0.002 0-0.003 0h0z"></path>
      <path d="M22.878 6.657l-1.004-1.004c-0.090-0.091-0.215-0.147-0.353-0.147-0.030 0-0.059 0.003-0.087 0.008l0.003-0-2.509 0.411c-0.239 0.042-0.419 0.248-0.419 0.496 0 0.135 0.053 0.258 0.14 0.348l-0-0 3.011 3.102c0.091 0.094 0.218 0.152 0.359 0.152 0.051 0 0.1-0.008 0.147-0.022l-0.004 0.001c0.178-0.053 0.312-0.198 0.349-0.379l0.001-0.003 0.502-2.51c0.006-0.030 0.010-0.064 0.010-0.098 0-0.138-0.056-0.263-0.146-0.354l0 0zM16.352 10.080c-0.091-0.091-0.216-0.147-0.355-0.147s-0.264 0.056-0.355 0.147l-1.003 1.004c-0.091 0.091-0.147 0.216-0.147 0.355 0 0.277 0.225 0.502 0.502 0.502 0.139 0 0.264-0.056 0.355-0.147v0l1.003-1.004c0.091-0.091 0.147-0.216 0.147-0.355s-0.056-0.264-0.147-0.355v0zM18.36 12.088c-0.091-0.091-0.216-0.147-0.355-0.147s-0.264 0.056-0.355 0.147l-1.003 1.004c-0.091 0.091-0.147 0.216-0.147 0.355 0 0.277 0.225 0.502 0.502 0.502 0.139 0 0.264-0.056 0.355-0.147v0l1.003-1.004c0.091-0.091 0.147-0.216 0.147-0.355s-0.056-0.264-0.147-0.355v0zM19.364 9.077c-0.091-0.091-0.216-0.147-0.355-0.147s-0.264 0.056-0.355 0.147v0l-1.004 1.003c-0.091 0.091-0.147 0.216-0.147 0.355 0 0.277 0.225 0.502 0.502 0.502 0.139 0 0.264-0.056 0.355-0.147l1.004-1.005c0.091-0.091 0.147-0.216 0.147-0.355s-0.056-0.264-0.147-0.355v0z"></path>
    </symbol>
    <symbol id="icon-car-garage" viewBox="0 0 32 32">
      <path d="M27.384 10.629l-10.027-6.25c-0.383-0.238-0.849-0.379-1.347-0.379-0.506 0-0.977 0.145-1.376 0.397l0.011-0.006-10.037 6.244c-0.623 0.391-0.795 1.191-0.385 1.786s1.248 0.76 1.872 0.367l9.916-6.169 9.903 6.174c0.228 0.14 0.482 0.207 0.733 0.207 0.444 0 0.877-0.207 1.136-0.588 0.406-0.598 0.226-1.395-0.4-1.782z"></path>
      <path d="M24.21 18.753c-0.072-0.442-0.447-0.776-0.901-0.783h-0.513l-0.194-2.074c-0.208-2.218-2.003-3.896-4.177-3.896h-4.849c-2.174 0-3.97 1.679-4.177 3.896l-0.194 2.074h-0.512c-0.456 0.007-0.831 0.341-0.903 0.778l-0.001 0.005-0.761 4.424c-0.017 0.097-0.027 0.209-0.027 0.323 0 0.463 0.164 0.887 0.436 1.218l-0.003-0.003c0.335 0.41 0.83 0.654 1.348 0.673v0.734c0 1.040 0.813 1.878 1.828 1.878h0.577c1.015 0 1.84-0.838 1.84-1.878v-0.722h5.952v0.721c0 1.040 0.819 1.88 1.833 1.88h0.578c1.014 0 1.834-0.84 1.834-1.88v-0.732c0.543-0.021 1.021-0.276 1.341-0.667l0.003-0.003c0.269-0.328 0.433-0.752 0.433-1.214 0-0.114-0.010-0.227-0.029-0.336l0.002 0.012-0.762-4.427zM10.39 23.693c-0.855 0-1.55-0.71-1.55-1.59 0-0.878 0.695-1.59 1.55-1.59 0.857 0 1.552 0.711 1.552 1.59s-0.695 1.59-1.551 1.59zM10.777 17.97l0.18-1.913c0.13-1.391 1.256-2.439 2.62-2.439h0.279v0.602c-0 0.005-0 0.011-0 0.017 0 0.505 0.407 0.916 0.912 0.92h2.464c0.509 0 0.92-0.416 0.92-0.937v-0.601h0.273c1.363 0 2.49 1.047 2.619 2.439l0.18 1.913h-10.447zM21.608 23.693c-0.856 0-1.55-0.71-1.55-1.59 0-0.878 0.694-1.59 1.55-1.59s1.551 0.711 1.551 1.59c0 0.88-0.694 1.59-1.55 1.59z"></path>
    </symbol>
    <symbol id="icon-stairs" viewBox="0 0 33 32">
      <path d="M27.288 9h-4.356c-0.669 0-1.211 0.537-1.211 1.2v3.114h-3.145c-0.67 0-1.212 0.536-1.212 1.199v3.114h-3.144c-0.67 0-1.211 0.537-1.211 1.2v3.264h-3.297c-0.322 0-0.63 0.126-0.857 0.35-0.219 0.217-0.355 0.517-0.355 0.85 0 0 0 0 0 0v0 2.509c0 0.663 0.543 1.2 1.212 1.2h17.576c0.67 0 1.212-0.537 1.212-1.2v-15.6c0-0.663-0.542-1.2-1.212-1.2z"></path>
      <path d="M21.264 5.245c-0.153-0.152-0.364-0.246-0.597-0.246-0.225 0-0.43 0.088-0.582 0.231l0-0c-5.343 5.075-10.426 10.032-15.342 14.825-0.15 0.146-0.244 0.349-0.244 0.575v5.558c0 0.448 0.373 0.812 0.833 0.812s0.833-0.364 0.833-0.812v-5.222c4.836-4.716 9.836-9.588 15.082-14.572 0.155-0.146 0.252-0.353 0.252-0.582 0-0.222-0.090-0.422-0.236-0.567l-0-0z"></path>
    </symbol>
    <symbol id="icon-phone" viewBox="0 0 32 32">
      <path d="M11.179 3.307c0.277-0.087 0.595-0.137 0.925-0.137 1.198 0 2.242 0.658 2.79 1.633l0.008 0.016 0.12 0.24 1.057 2.352c0.223 0.482 0.352 1.046 0.352 1.64 0 1.047-0.403 1.999-1.061 2.712l0.002-0.003-0.212 0.211-1.671 1.557c-0.3 0.285-0.075 1.387 1.015 3.272 0.977 1.696 1.776 2.488 2.167 2.531h0.069l0.084-0.016 3.28-1.003c0.21-0.067 0.452-0.105 0.703-0.105 0.715 0 1.358 0.313 1.797 0.809l0.002 0.003 0.147 0.183 2.171 3.008c0.378 0.519 0.606 1.17 0.606 1.873 0 0.816-0.305 1.561-0.808 2.126l0.003-0.003-0.195 0.2-0.868 0.824c-1.001 0.95-2.358 1.534-3.851 1.534-0.754 0-1.474-0.149-2.131-0.42l0.037 0.014c-3.096-1.248-5.909-4.1-8.464-8.525-2.56-4.437-3.624-8.304-3.149-11.616 0.305-2.068 1.705-3.748 3.581-4.45l0.039-0.013 0.308-0.103 1.147-0.345z"></path>
    </symbol>
    <symbol id="icon-play" viewBox="0 0 22 32">
      <path d="M21.818 16.727l-21.091-16h-0.727v30.545l21.818-14.545z"></path>
    </symbol>
    <symbol id="icon-star" viewBox="0 0 32 32">
      <path d="M29.263 12.239c-0.173-0.498-0.618-0.857-1.153-0.901l-0.005-0-7.601-0.603-3.289-7.281c-0.212-0.469-0.677-0.789-1.215-0.789s-1.001 0.319-1.211 0.779l-0.003 0.008-3.288 7.283-7.601 0.603c-0.69 0.057-1.228 0.63-1.228 1.329 0 0.374 0.154 0.713 0.402 0.955l0 0 5.615 5.475-1.986 8.602c-0.022 0.090-0.034 0.194-0.034 0.301 0 0.737 0.597 1.334 1.334 1.334 0.276 0 0.533-0.084 0.745-0.228l-0.005 0.003 7.261-4.84 7.259 4.84c0.208 0.139 0.463 0.223 0.738 0.223 0.737 0 1.335-0.598 1.335-1.335 0-0.129-0.018-0.254-0.052-0.371l0.002 0.009-2.439-8.534 6.049-5.443c0.395-0.357 0.541-0.914 0.37-1.419z"></path>
    </symbol>
    <symbol id="icon-clock" viewBox="0 0 32 32">
      <path d="M15.987 2.667c-7.36 0-13.32 5.973-13.32 13.333s5.96 13.333 13.32 13.333c7.373 0 13.347-5.973 13.347-13.333s-5.973-13.333-13.347-13.333zM21.333 21.333c-0.24 0.242-0.573 0.391-0.94 0.391s-0.7-0.149-0.94-0.391l-4.387-4.387c-0.246-0.241-0.398-0.576-0.4-0.946v-5.334c0-0.733 0.6-1.333 1.333-1.333s1.333 0.6 1.333 1.333v4.787l4 4c0.52 0.52 0.52 1.36 0 1.88z"></path>
    </symbol>
    <symbol id="icon-letter" viewBox="0 0 32 32">
      <path d="M25.333 5.333h-18.667c-2.209 0-4 1.791-4 4v0 13.333c0 2.209 1.791 4 4 4v0h18.667c2.209 0 4-1.791 4-4v0-13.333c0-2.209-1.791-4-4-4v0zM25.333 8l-8.667 5.96c-0.191 0.112-0.421 0.179-0.667 0.179s-0.475-0.066-0.673-0.182l0.006 0.003-8.667-5.96h18.667z"></path>
    </symbol>
    <symbol id="icon-facebook" viewBox="0 0 32 32">
      <path d="M12.319 26v-9.385h-3.319v-3.378h3.319v-2.887c0-2.268 1.96-4.351 6.477-4.351 1.829 0 3.181 0.131 3.181 0.131l-0.107 3.155s-1.379-0.010-2.884-0.010c-1.629 0-1.89 0.562-1.89 1.493v2.467h4.904l-0.213 3.38h-4.69v9.385h-4.778z"></path>
    </symbol>
    <symbol id="icon-twitter" viewBox="0 0 32 32">
      <path d="M28 8.376c-0.825 0.38-1.782 0.655-2.786 0.775l-0.046 0.005c1.022-0.635 1.788-1.6 2.153-2.745l0.010-0.035c-0.964 0.588-2.020 1-3.12 1.219-0.45-0.493-0.994-0.891-1.605-1.168l-0.031-0.013c-0.574-0.262-1.244-0.414-1.95-0.414-0.003 0-0.006 0-0.009 0h0c-2.725 0-4.916 2.266-4.916 5.047 0 0.39 0.046 0.781 0.12 1.157-4.080-0.219-7.72-2.219-10.14-5.28-0.421 0.727-0.67 1.599-0.67 2.529 0 0.006 0 0.012 0 0.018v-0.001c0 1.752 0.869 3.296 2.193 4.205-0.823-0.035-1.585-0.269-2.247-0.654l0.023 0.012v0.062c0 2.452 1.69 4.485 3.943 4.952-0.423 0.113-0.858 0.17-1.295 0.172-0.32 0-0.623-0.033-0.93-0.077 0.624 2 2.438 3.453 4.598 3.5-1.651 1.343-3.78 2.157-6.099 2.157-0.002 0-0.005 0-0.007 0h0c-0.412 0-0.793-0.015-1.188-0.062 2.121 1.418 4.729 2.263 7.534 2.263 0.007 0 0.013 0 0.020 0h-0.001c9.045 0 13.994-7.686 13.994-14.358 0-0.219 0-0.438-0.014-0.657 0.964-0.732 1.781-1.595 2.442-2.572l0.024-0.038z"></path>
    </symbol>
    <symbol id="icon-instagram" viewBox="0 0 32 32">
      <path d="M15.997 12.665c-1.84 0.005-3.33 1.495-3.334 3.335v0c0.004 1.84 1.494 3.33 3.334 3.335h0c1.84-0.004 3.331-1.495 3.335-3.335v-0c-0.004-1.84-1.495-3.331-3.335-3.335h-0zM26 16c0-1.38 0.012-2.75-0.065-4.128-0.078-1.6-0.443-3.022-1.614-4.193-1.173-1.173-2.591-1.536-4.192-1.613-1.382-0.078-2.751-0.066-4.129-0.066-1.381 0-2.75-0.013-4.128 0.065-1.601 0.077-3.022 0.443-4.193 1.613-1.173 1.174-1.536 2.592-1.613 4.193-0.078 1.382-0.066 2.751-0.066 4.129s-0.013 2.75 0.065 4.128c0.077 1.6 0.443 3.022 1.613 4.193 1.174 1.173 2.592 1.536 4.193 1.613 1.381 0.078 2.75 0.065 4.128 0.065 1.38 0 2.75 0.013 4.128-0.065 1.6-0.077 3.021-0.443 4.192-1.613 1.174-1.174 1.536-2.592 1.614-4.193 0.080-1.379 0.065-2.747 0.065-4.128zM15.998 21.131c-0.002 0-0.005 0-0.007 0-2.83 0-5.124-2.294-5.124-5.124 0-0.002 0-0.005 0-0.007v0c0-0.002 0-0.005 0-0.007 0-2.83 2.294-5.124 5.124-5.124 0.002 0 0.004 0 0.006 0h-0c2.84 0 5.131 2.292 5.131 5.131 0 0.002 0 0.005 0 0.007 0 2.83-2.294 5.124-5.124 5.124-0.002 0-0.004 0-0.006 0h0zM21.339 11.857c-0 0-0.001 0-0.001 0-0.661 0-1.197-0.536-1.197-1.197 0-0 0-0.001 0-0.001v0c0-0.663 0.535-1.198 1.198-1.198 0.001 0 0.003 0 0.004 0 0.661 0 1.197 0.536 1.197 1.197 0 0.332-0.135 0.632-0.353 0.849l-0 0c-0.217 0.216-0.516 0.35-0.846 0.35-0.001 0-0.002 0-0.002 0h0z"></path>
    </symbol>
  </defs>
</svg>